<mxfile host="app.diagrams.net" modified="2022-02-18T22:05:16.417Z" agent="5.0 (Windows NT 10.0; Win64; x64) AppleWebKit/537.36 (KHTML, like Gecko) Chrome/98.0.4758.102 Safari/537.36" etag="FtO9HKuFJgeyfNBo9Ods" version="16.6.1" type="github">
  <diagram id="6a731a19-8d31-9384-78a2-239565b7b9f0" name="Page-1">
    <mxGraphModel dx="1052" dy="555" grid="1" gridSize="10" guides="1" tooltips="1" connect="1" arrows="1" fold="1" page="1" pageScale="1" pageWidth="1169" pageHeight="827" background="none" math="0" shadow="0">
      <root>
        <mxCell id="0" />
        <mxCell id="1" parent="0" />
        <mxCell id="2" value="start" style="shape=mxgraph.flowchart.terminator;strokeWidth=2;gradientColor=none;gradientDirection=north;fontStyle=0;html=1;" parent="1" vertex="1">
          <mxGeometry x="260" y="60" width="120" height="30" as="geometry" />
        </mxCell>
        <mxCell id="3" value="&lt;span id=&quot;docs-internal-guid-b2ae05a8-7fff-ae5d-3fc7-152c49086be6&quot;&gt;&lt;p dir=&quot;ltr&quot; style=&quot;line-height: 1.7999999999999998 ; margin-top: 0pt ; margin-bottom: 0pt&quot;&gt;&lt;span style=&quot;font-size: 11pt ; font-family: &amp;#34;arial&amp;#34; ; background-color: transparent ; vertical-align: baseline&quot;&gt;Read num1,&lt;/span&gt;&lt;/p&gt;&lt;p dir=&quot;ltr&quot; style=&quot;line-height: 1.7999999999999998 ; margin-top: 0pt ; margin-bottom: 0pt&quot;&gt;&lt;span style=&quot;font-size: 11pt ; font-family: &amp;#34;arial&amp;#34; ; background-color: transparent ; vertical-align: baseline&quot;&gt;&amp;nbsp;num2, num3&lt;/span&gt;&lt;/p&gt;&lt;div&gt;&lt;span style=&quot;font-size: 11pt ; font-family: &amp;#34;arial&amp;#34; ; background-color: transparent ; vertical-align: baseline&quot;&gt;&lt;br&gt;&lt;/span&gt;&lt;/div&gt;&lt;/span&gt;" style="shape=mxgraph.flowchart.data;strokeWidth=2;gradientColor=none;gradientDirection=north;fontStyle=0;html=1;" parent="1" vertex="1">
          <mxGeometry x="240.5" y="130" width="159" height="80" as="geometry" />
        </mxCell>
        <mxCell id="5" value="&amp;nbsp;num 1 &amp;gt; num 2" style="shape=mxgraph.flowchart.data;strokeWidth=2;gradientColor=none;gradientDirection=north;fontStyle=0;html=1;" parent="1" vertex="1">
          <mxGeometry x="240.5" y="250" width="119.5" height="70" as="geometry" />
        </mxCell>
        <mxCell id="7" style="fontStyle=1;strokeColor=#003366;strokeWidth=1;html=1;" parent="1" source="2" target="3" edge="1">
          <mxGeometry relative="1" as="geometry" />
        </mxCell>
        <mxCell id="8" style="fontStyle=1;strokeColor=#003366;strokeWidth=1;html=1;" parent="1" source="3" target="5" edge="1">
          <mxGeometry relative="1" as="geometry" />
        </mxCell>
        <mxCell id="9" style="fontStyle=1;strokeColor=#003366;strokeWidth=1;html=1;" parent="1" source="5" edge="1">
          <mxGeometry relative="1" as="geometry">
            <mxPoint x="305" y="520" as="targetPoint" />
          </mxGeometry>
        </mxCell>
        <mxCell id="23" value="" style="edgeStyle=elbowEdgeStyle;elbow=horizontal;exitX=0.5;exitY=1;exitPerimeter=0;fontStyle=1;strokeColor=#003366;strokeWidth=1;html=1;" parent="1" edge="1">
          <mxGeometry width="100" height="100" as="geometry">
            <mxPoint x="321" y="860" as="sourcePoint" />
            <mxPoint x="321" y="920" as="targetPoint" />
          </mxGeometry>
        </mxCell>
        <mxCell id="asQv4e42dubw1zmyxYcK-61" value="" style="endArrow=classic;html=1;rounded=0;exitX=0.928;exitY=0.625;exitDx=0;exitDy=0;exitPerimeter=0;" edge="1" parent="1" source="5">
          <mxGeometry width="50" height="50" relative="1" as="geometry">
            <mxPoint x="580" y="260" as="sourcePoint" />
            <mxPoint x="470" y="294" as="targetPoint" />
          </mxGeometry>
        </mxCell>
        <mxCell id="asQv4e42dubw1zmyxYcK-62" value="&amp;nbsp;num 1 &amp;gt; num 3" style="shape=mxgraph.flowchart.data;strokeWidth=2;gradientColor=none;gradientDirection=north;fontStyle=0;html=1;" vertex="1" parent="1">
          <mxGeometry x="480" y="255" width="119.5" height="60" as="geometry" />
        </mxCell>
        <mxCell id="asQv4e42dubw1zmyxYcK-71" value="Yes" style="text;fontStyle=0;html=1;strokeColor=none;gradientColor=none;fillColor=none;strokeWidth=2;" vertex="1" parent="1">
          <mxGeometry x="620" y="272" width="40" height="26" as="geometry" />
        </mxCell>
        <mxCell id="asQv4e42dubw1zmyxYcK-74" value="print num 1" style="shape=mxgraph.flowchart.data;strokeWidth=2;gradientColor=none;gradientDirection=north;fontStyle=0;html=1;" vertex="1" parent="1">
          <mxGeometry x="680" y="384" width="119.5" height="60" as="geometry" />
        </mxCell>
        <mxCell id="asQv4e42dubw1zmyxYcK-75" value="" style="endArrow=classic;html=1;rounded=0;exitX=1;exitY=0.5;exitDx=0;exitDy=0;" edge="1" parent="1" source="asQv4e42dubw1zmyxYcK-71">
          <mxGeometry width="50" height="50" relative="1" as="geometry">
            <mxPoint x="680" y="300" as="sourcePoint" />
            <mxPoint x="750" y="285" as="targetPoint" />
          </mxGeometry>
        </mxCell>
        <mxCell id="asQv4e42dubw1zmyxYcK-77" value="" style="endArrow=classic;html=1;rounded=0;" edge="1" parent="1">
          <mxGeometry width="50" height="50" relative="1" as="geometry">
            <mxPoint x="530" y="320" as="sourcePoint" />
            <mxPoint x="530" y="380" as="targetPoint" />
          </mxGeometry>
        </mxCell>
        <mxCell id="asQv4e42dubw1zmyxYcK-78" value="print&amp;nbsp; num 3" style="shape=mxgraph.flowchart.data;strokeWidth=2;gradientColor=none;gradientDirection=north;fontStyle=0;html=1;" vertex="1" parent="1">
          <mxGeometry x="480" y="388.5" width="119.5" height="60" as="geometry" />
        </mxCell>
        <mxCell id="asQv4e42dubw1zmyxYcK-79" value="" style="endArrow=classic;html=1;rounded=0;" edge="1" parent="1">
          <mxGeometry width="50" height="50" relative="1" as="geometry">
            <mxPoint x="750" y="298" as="sourcePoint" />
            <mxPoint x="750" y="368" as="targetPoint" />
          </mxGeometry>
        </mxCell>
        <mxCell id="asQv4e42dubw1zmyxYcK-80" value="No" style="text;fontStyle=0;html=1;strokeColor=none;gradientColor=none;fillColor=none;strokeWidth=2;align=center;" vertex="1" parent="1">
          <mxGeometry x="540" y="350" width="40" height="26" as="geometry" />
        </mxCell>
        <mxCell id="asQv4e42dubw1zmyxYcK-81" value="num 2&amp;gt; num3" style="shape=mxgraph.flowchart.data;strokeWidth=2;gradientColor=none;gradientDirection=north;fontStyle=0;html=1;" vertex="1" parent="1">
          <mxGeometry x="60" y="250" width="120" height="65" as="geometry" />
        </mxCell>
        <mxCell id="asQv4e42dubw1zmyxYcK-82" value="" style="endArrow=classic;html=1;rounded=0;" edge="1" parent="1">
          <mxGeometry width="50" height="50" relative="1" as="geometry">
            <mxPoint x="240" y="290" as="sourcePoint" />
            <mxPoint x="170" y="290" as="targetPoint" />
          </mxGeometry>
        </mxCell>
        <mxCell id="asQv4e42dubw1zmyxYcK-85" value="No" style="text;fontStyle=0;html=1;strokeColor=none;gradientColor=none;fillColor=none;strokeWidth=2;align=center;" vertex="1" parent="1">
          <mxGeometry x="210" y="270" width="40" height="26" as="geometry" />
        </mxCell>
        <mxCell id="asQv4e42dubw1zmyxYcK-86" value="" style="endArrow=classic;html=1;rounded=0;" edge="1" parent="1">
          <mxGeometry width="50" height="50" relative="1" as="geometry">
            <mxPoint x="120" y="320" as="sourcePoint" />
            <mxPoint x="120" y="370" as="targetPoint" />
          </mxGeometry>
        </mxCell>
        <mxCell id="asQv4e42dubw1zmyxYcK-87" value="No" style="text;fontStyle=0;html=1;strokeColor=none;gradientColor=none;fillColor=none;strokeWidth=2;align=center;" vertex="1" parent="1">
          <mxGeometry x="130" y="340" width="40" height="26" as="geometry" />
        </mxCell>
        <mxCell id="asQv4e42dubw1zmyxYcK-88" value="print num 2" style="shape=mxgraph.flowchart.data;strokeWidth=2;gradientColor=none;gradientDirection=north;fontStyle=0;html=1;" vertex="1" parent="1">
          <mxGeometry x="60" y="388.5" width="120" height="65" as="geometry" />
        </mxCell>
        <mxCell id="asQv4e42dubw1zmyxYcK-90" value="" style="endArrow=none;html=1;rounded=0;startArrow=none;" edge="1" parent="1" source="asQv4e42dubw1zmyxYcK-91">
          <mxGeometry width="50" height="50" relative="1" as="geometry">
            <mxPoint x="30" y="272" as="sourcePoint" />
            <mxPoint x="70" y="272" as="targetPoint" />
          </mxGeometry>
        </mxCell>
        <mxCell id="asQv4e42dubw1zmyxYcK-91" value="Yes" style="text;fontStyle=0;html=1;strokeColor=none;gradientColor=none;fillColor=none;strokeWidth=2;" vertex="1" parent="1">
          <mxGeometry x="30" y="250" width="40" height="26" as="geometry" />
        </mxCell>
        <mxCell id="asQv4e42dubw1zmyxYcK-96" value="" style="endArrow=none;html=1;rounded=0;" edge="1" parent="1" target="asQv4e42dubw1zmyxYcK-91">
          <mxGeometry width="50" height="50" relative="1" as="geometry">
            <mxPoint x="30" y="272" as="sourcePoint" />
            <mxPoint x="70" y="272" as="targetPoint" />
          </mxGeometry>
        </mxCell>
        <mxCell id="asQv4e42dubw1zmyxYcK-98" value="End" style="shape=mxgraph.flowchart.terminator;strokeWidth=2;gradientColor=none;gradientDirection=north;fontStyle=0;html=1;" vertex="1" parent="1">
          <mxGeometry x="350" y="570" width="120" height="30" as="geometry" />
        </mxCell>
        <mxCell id="asQv4e42dubw1zmyxYcK-99" value="" style="endArrow=none;html=1;rounded=0;" edge="1" parent="1">
          <mxGeometry width="50" height="50" relative="1" as="geometry">
            <mxPoint x="530" y="520" as="sourcePoint" />
            <mxPoint x="740" y="520" as="targetPoint" />
          </mxGeometry>
        </mxCell>
        <mxCell id="asQv4e42dubw1zmyxYcK-102" value="" style="endArrow=none;html=1;rounded=0;" edge="1" parent="1">
          <mxGeometry width="50" height="50" relative="1" as="geometry">
            <mxPoint x="120" y="520" as="sourcePoint" />
            <mxPoint x="530" y="520" as="targetPoint" />
          </mxGeometry>
        </mxCell>
        <mxCell id="asQv4e42dubw1zmyxYcK-103" value="" style="endArrow=none;html=1;rounded=0;" edge="1" parent="1">
          <mxGeometry width="50" height="50" relative="1" as="geometry">
            <mxPoint x="530" y="520" as="sourcePoint" />
            <mxPoint x="530" y="460" as="targetPoint" />
          </mxGeometry>
        </mxCell>
        <mxCell id="asQv4e42dubw1zmyxYcK-104" value="" style="endArrow=none;html=1;rounded=0;" edge="1" parent="1">
          <mxGeometry width="50" height="50" relative="1" as="geometry">
            <mxPoint x="740" y="520" as="sourcePoint" />
            <mxPoint x="740" y="450" as="targetPoint" />
          </mxGeometry>
        </mxCell>
        <mxCell id="asQv4e42dubw1zmyxYcK-105" value="" style="endArrow=none;html=1;rounded=0;" edge="1" parent="1">
          <mxGeometry width="50" height="50" relative="1" as="geometry">
            <mxPoint x="120" y="460" as="sourcePoint" />
            <mxPoint x="120" y="520" as="targetPoint" />
          </mxGeometry>
        </mxCell>
        <mxCell id="asQv4e42dubw1zmyxYcK-107" value="" style="endArrow=classic;html=1;rounded=0;" edge="1" parent="1">
          <mxGeometry width="50" height="50" relative="1" as="geometry">
            <mxPoint x="420" y="520" as="sourcePoint" />
            <mxPoint x="420" y="560" as="targetPoint" />
          </mxGeometry>
        </mxCell>
        <mxCell id="asQv4e42dubw1zmyxYcK-110" value="" style="endArrow=none;html=1;rounded=0;" edge="1" parent="1">
          <mxGeometry width="50" height="50" relative="1" as="geometry">
            <mxPoint x="50" y="390" as="sourcePoint" />
            <mxPoint x="50" y="280" as="targetPoint" />
          </mxGeometry>
        </mxCell>
        <mxCell id="asQv4e42dubw1zmyxYcK-111" value="" style="endArrow=classic;html=1;rounded=0;" edge="1" parent="1">
          <mxGeometry width="50" height="50" relative="1" as="geometry">
            <mxPoint x="50" y="390" as="sourcePoint" />
            <mxPoint x="80" y="390" as="targetPoint" />
          </mxGeometry>
        </mxCell>
        <mxCell id="asQv4e42dubw1zmyxYcK-112" value="" style="endArrow=none;html=1;rounded=0;" edge="1" parent="1">
          <mxGeometry width="50" height="50" relative="1" as="geometry">
            <mxPoint x="50" y="285" as="sourcePoint" />
            <mxPoint x="70" y="284.5" as="targetPoint" />
          </mxGeometry>
        </mxCell>
        <mxCell id="asQv4e42dubw1zmyxYcK-113" value="Yes" style="text;fontStyle=0;html=1;strokeColor=none;gradientColor=none;fillColor=none;strokeWidth=2;" vertex="1" parent="1">
          <mxGeometry x="410" y="270" width="40" height="26" as="geometry" />
        </mxCell>
      </root>
    </mxGraphModel>
  </diagram>
</mxfile>
